<svg width="19" height="18" viewBox="0 0 19 18" fill="none" xmlns="http://www.w3.org/2000/svg">
<path d="M9.88013 18H1.04369C0.481134 18 0.0253906 17.5551 0.0253906 17.0065V0.993454C0.0253906 0.444694 0.481205 0 1.04369 0H17.4572C18.0195 0 18.4754 0.444694 18.4754 0.993454V17.0065C18.4754 17.5552 18.0194 18 17.4572 18H12.7556V11.0294H15.1538L15.5129 8.31284H12.7556V6.57849C12.7556 5.79198 12.9795 5.256 14.1355 5.256L15.61 5.25537V2.82566C15.355 2.79255 14.4797 2.71859 13.4614 2.71859C11.3356 2.71859 9.88013 3.98457 9.88013 6.30945V8.31284H7.47578V11.0294H9.88013V18Z" fill="white"/>
</svg>
