<svg width="124" height="32" viewBox="0 0 124 32" fill="none" xmlns="http://www.w3.org/2000/svg">
<path d="M43.6959 25.5527L45.4082 29.7243L47.1156 25.5527H48.4453V30.9947H47.4198V29.2018L47.5229 26.8006L45.7713 30.9947H45.0353L43.2886 26.8051L43.3917 29.2018V30.9947H42.3662V25.5527H43.7008H43.6959Z" fill="white"/>
<path d="M52.071 30.9947C52.0268 30.9181 51.9875 30.792 51.9581 30.6163C51.6441 30.9181 51.2565 31.0668 50.8002 31.0668C50.3439 31.0668 49.9955 30.9497 49.7159 30.7199C49.4362 30.4902 49.2988 30.2018 49.2988 29.8595C49.2988 29.427 49.4755 29.0981 49.8238 28.8684C50.1722 28.6386 50.6726 28.5215 51.3203 28.5215H51.9287V28.2557C51.9287 28.0485 51.8649 27.8773 51.7373 27.7511C51.6097 27.625 51.4135 27.5619 51.1535 27.5619C50.9278 27.5619 50.7413 27.616 50.599 27.7151C50.4567 27.8187 50.3831 27.9494 50.3831 28.1115H49.392C49.392 27.8908 49.4706 27.6836 49.6325 27.4899C49.7944 27.2961 50.0103 27.143 50.285 27.0348C50.5598 26.9267 50.8689 26.8682 51.2074 26.8682C51.7226 26.8682 52.1347 26.9853 52.4389 27.2241C52.7431 27.4628 52.905 27.7962 52.91 28.2287V30.0532C52.91 30.4181 52.9639 30.7064 53.0768 30.9226V30.9857H52.066L52.071 30.9947ZM50.9817 30.3415C51.178 30.3415 51.3595 30.2965 51.5312 30.2109C51.703 30.1253 51.8354 30.0081 51.9189 29.8595V29.0981H51.3841C51.0161 29.0981 50.7413 29.1567 50.5598 29.2738C50.3733 29.391 50.285 29.5576 50.285 29.7694C50.285 29.9451 50.3488 30.0847 50.4764 30.1838C50.6039 30.2874 50.7708 30.337 50.9817 30.337V30.3415Z" fill="white"/>
<path d="M55.0688 25.9668V26.9489H55.844V27.6201H55.0688V29.8771C55.0688 30.0303 55.1031 30.1429 55.1669 30.2105C55.2307 30.2781 55.3534 30.3141 55.5251 30.3141C55.6379 30.3141 55.7557 30.3006 55.8734 30.2781V30.9808C55.6477 31.0394 55.4319 31.0664 55.2209 31.0664C54.4604 31.0664 54.0826 30.6835 54.0826 29.9132V27.6201H53.3564V26.9489H54.0826V25.9668H55.0737H55.0688Z" fill="white"/>
<path d="M58.4154 31.0707C57.7874 31.0707 57.282 30.8905 56.8895 30.5256C56.5019 30.1652 56.3057 29.6787 56.3057 29.075V28.9624C56.3057 28.5569 56.3891 28.1965 56.5608 27.8812C56.7325 27.5613 56.968 27.3181 57.2771 27.1379C57.5813 26.9622 57.9248 26.8721 58.3026 26.8721C58.9012 26.8721 59.3673 27.0478 59.6911 27.3992C60.0198 27.7505 60.1817 28.2461 60.1817 28.8903V29.2552H57.3017C57.3311 29.5886 57.4538 29.8544 57.6647 30.0481C57.8757 30.2418 58.1456 30.3409 58.4694 30.3409C58.9208 30.3409 59.2937 30.1742 59.5782 29.8363L60.113 30.3049C59.9364 30.5481 59.7009 30.7328 59.4065 30.868C59.1121 31.0031 58.7834 31.0662 58.4154 31.0662V31.0707ZM58.2977 27.6064C58.0278 27.6064 57.807 27.692 57.6402 27.8677C57.4734 28.0434 57.3655 28.2866 57.3213 28.5975H59.2054V28.5299C59.1857 28.2236 59.0974 27.9938 58.9404 27.8406C58.7834 27.6875 58.5724 27.6064 58.2977 27.6064Z" fill="white"/>
<path d="M63.1303 27.7782C62.9978 27.7601 62.8653 27.7466 62.7279 27.7466C62.2765 27.7466 61.9674 27.9043 61.8104 28.2242V30.9902H60.8193V26.9447H61.7663L61.7908 27.3952C62.0312 27.0439 62.36 26.8682 62.7819 26.8682C62.9242 26.8682 63.0419 26.8862 63.1303 26.9222V27.7737V27.7782Z" fill="white"/>
<path d="M63.6357 25.8996C63.6357 25.76 63.6848 25.6428 63.778 25.5527C63.8762 25.4626 64.0135 25.4131 64.1902 25.4131C64.3668 25.4131 64.5091 25.4581 64.6072 25.5527C64.7053 25.6473 64.7544 25.76 64.7544 25.8996C64.7544 26.0393 64.7053 26.1519 64.6072 26.242C64.5091 26.3321 64.3717 26.3772 64.1902 26.3772C64.0086 26.3772 63.8713 26.3321 63.778 26.242C63.6848 26.1519 63.6357 26.0348 63.6357 25.8996ZM64.6857 30.9948H63.6946V26.9493H64.6857V30.9948Z" fill="white"/>
<path d="M68.2672 30.9947C68.2231 30.9181 68.1838 30.792 68.1544 30.6163C67.8404 30.9181 67.4528 31.0668 66.9965 31.0668C66.5402 31.0668 66.1918 30.9497 65.9122 30.7199C65.6325 30.4902 65.4951 30.2018 65.4951 29.8595C65.4951 29.427 65.6717 29.0981 66.0201 28.8684C66.3685 28.6386 66.8689 28.5215 67.5166 28.5215H68.125V28.2557C68.125 28.0485 68.0612 27.8773 67.9336 27.7511C67.806 27.625 67.6098 27.5619 67.3497 27.5619C67.124 27.5619 66.9376 27.616 66.7953 27.7151C66.653 27.8187 66.5794 27.9494 66.5794 28.1115H65.5883C65.5883 27.8908 65.6668 27.6836 65.8288 27.4899C65.9907 27.2961 66.2065 27.143 66.4813 27.0348C66.7561 26.9267 67.0652 26.8682 67.4037 26.8682C67.9189 26.8682 68.331 26.9853 68.6352 27.2241C68.9394 27.4628 69.1013 27.7962 69.1062 28.2287V30.0532C69.1062 30.4181 69.1602 30.7064 69.2731 30.9226V30.9857H68.2623L68.2672 30.9947ZM67.178 30.3415C67.3743 30.3415 67.5558 30.2965 67.7275 30.2109C67.8993 30.1253 68.0317 30.0081 68.1151 29.8595V29.0981H67.5803C67.2124 29.0981 66.9376 29.1567 66.7561 29.2738C66.5696 29.391 66.4813 29.5576 66.4813 29.7694C66.4813 29.9451 66.5451 30.0847 66.6727 30.1838C66.8002 30.2874 66.967 30.337 67.178 30.337V30.3415Z" fill="white"/>
<path d="M71.0741 30.9948H70.083V25.251H71.0741V30.9948Z" fill="white"/>
<path d="M74.0771 30.9947V25.5527H76.1084C76.7806 25.5527 77.2909 25.6744 77.6392 25.9221C77.9876 26.1699 78.1642 26.5348 78.1642 27.0259C78.1642 27.2736 78.0906 27.4989 77.9434 27.6971C77.7962 27.8953 77.5803 28.053 77.3007 28.1611C77.6196 28.2422 77.8698 28.3909 78.0415 28.6116C78.2182 28.8324 78.3065 29.0982 78.3065 29.4045C78.3065 29.9136 78.1299 30.31 77.7717 30.5803C77.4135 30.8551 76.9032 30.9902 76.2409 30.9902H74.0771V30.9947ZM75.1075 27.8413H76.1182C76.4371 27.8413 76.6874 27.7737 76.8689 27.643C77.0504 27.5079 77.1388 27.3232 77.1388 27.0754C77.1388 26.8051 77.0554 26.6114 76.8885 26.4943C76.7217 26.3726 76.4617 26.3141 76.1084 26.3141H75.1075V27.8413ZM75.1075 28.535V30.2379H76.2507C76.5745 30.2379 76.8247 30.1658 77.0063 30.0172C77.1878 29.8685 77.281 29.6658 77.281 29.4045C77.281 28.8369 76.967 28.5485 76.339 28.5395H75.1075V28.535Z" fill="white"/>
<path d="M81.7844 30.5977C81.4949 30.913 81.0828 31.0707 80.548 31.0707C80.0721 31.0707 79.709 30.94 79.4637 30.6878C79.2184 30.431 79.0957 30.0616 79.0957 29.575V26.9531H80.0868V29.5615C80.0868 30.0751 80.3174 30.3319 80.7835 30.3319C81.2496 30.3319 81.5882 30.1742 81.755 29.8588V26.9531H82.7461V30.9986H81.8139L81.7893 30.6022L81.7844 30.5977Z" fill="white"/>
<path d="M86.0978 29.8949C86.0978 29.7327 86.0242 29.6111 85.8819 29.5255C85.7396 29.4399 85.4943 29.3678 85.1607 29.3003C84.8221 29.2372 84.5425 29.1516 84.3168 29.0525C83.8212 28.8317 83.5759 28.5164 83.5759 28.0974C83.5759 27.7505 83.7378 27.4577 84.0567 27.2235C84.3757 26.9892 84.7829 26.8721 85.2784 26.8721C85.8034 26.8721 86.2303 26.9937 86.5541 27.2325C86.8779 27.4712 87.0398 27.7821 87.0398 28.165H86.0487C86.0487 27.9893 85.9801 27.8451 85.8378 27.728C85.6955 27.6109 85.509 27.5523 85.2735 27.5523C85.0576 27.5523 84.881 27.5974 84.7436 27.692C84.6063 27.7866 84.5376 27.9082 84.5376 28.0614C84.5376 28.201 84.6014 28.3092 84.7289 28.3857C84.8565 28.4623 85.1165 28.5389 85.5041 28.62C85.8917 28.6966 86.1959 28.7912 86.4167 28.8993C86.6375 29.0074 86.8043 29.1381 86.9074 29.2912C87.0104 29.4444 87.0693 29.6291 87.0693 29.8454C87.0693 30.2103 86.9074 30.5031 86.5786 30.7283C86.2499 30.9536 85.8181 31.0662 85.2882 31.0662C84.9252 31.0662 84.6063 31.0076 84.3217 30.886C84.0371 30.7644 83.8212 30.6022 83.6642 30.3905C83.5072 30.1832 83.4287 29.9535 83.4287 29.7147H84.3904C84.4051 29.931 84.4934 30.0931 84.6553 30.2103C84.8172 30.3274 85.0331 30.386 85.303 30.386C85.5728 30.386 85.7593 30.3409 85.8966 30.2508C86.034 30.1607 86.1027 30.0391 86.1027 29.8949H86.0978Z" fill="white"/>
<path d="M87.8047 25.8996C87.8047 25.76 87.8537 25.6428 87.947 25.5527C88.0451 25.4626 88.1825 25.4131 88.3591 25.4131C88.5357 25.4131 88.678 25.4581 88.7762 25.5527C88.8743 25.6473 88.9234 25.76 88.9234 25.8996C88.9234 26.0393 88.8743 26.1519 88.7762 26.242C88.678 26.3321 88.5406 26.3772 88.3591 26.3772C88.1776 26.3772 88.0402 26.3321 87.947 26.242C87.8537 26.1519 87.8047 26.0348 87.8047 25.8996ZM88.8547 30.9948H87.8636V26.9493H88.8547V30.9948Z" fill="white"/>
<path d="M90.7291 26.949L90.7586 27.4176C91.0824 27.0572 91.5141 26.877 92.0391 26.877C92.9566 26.877 93.4227 27.359 93.4424 28.3231V30.9945H92.4513V28.3726C92.4513 28.1158 92.3924 27.9266 92.2697 27.8005C92.1471 27.6788 91.9508 27.6158 91.6761 27.6158C91.2786 27.6158 90.9793 27.7825 90.7831 28.1113V30.99H89.792V26.9445H90.7242L90.7291 26.949Z" fill="white"/>
<path d="M96.2641 31.0707C95.636 31.0707 95.1307 30.8905 94.7382 30.5256C94.3506 30.1652 94.1543 29.6787 94.1543 29.075V28.9624C94.1543 28.5569 94.2377 28.1965 94.4094 27.8812C94.5812 27.5613 94.8167 27.3181 95.1258 27.1379C95.43 26.9622 95.7734 26.8721 96.1512 26.8721C96.7498 26.8721 97.2159 27.0478 97.5397 27.3992C97.8685 27.7505 98.0304 28.2461 98.0304 28.8903V29.2552H95.1503C95.1797 29.5886 95.3024 29.8544 95.5134 30.0481C95.7244 30.2418 95.9942 30.3409 96.318 30.3409C96.7694 30.3409 97.1423 30.1742 97.4269 29.8363L97.9617 30.3049C97.7851 30.5481 97.5495 30.7328 97.2552 30.868C96.9608 31.0031 96.632 31.0662 96.2641 31.0662V31.0707ZM96.1463 27.6064C95.8765 27.6064 95.6557 27.692 95.4888 27.8677C95.322 28.0434 95.2141 28.2866 95.1699 28.5975H97.054V28.5299C97.0344 28.2236 96.9461 27.9938 96.7891 27.8406C96.632 27.6875 96.4211 27.6064 96.1463 27.6064Z" fill="white"/>
<path d="M101.141 29.8949C101.141 29.7327 101.067 29.6111 100.925 29.5255C100.783 29.4399 100.537 29.3678 100.204 29.3003C99.8651 29.2372 99.5854 29.1516 99.3597 29.0525C98.8642 28.8317 98.6189 28.5164 98.6189 28.0974C98.6189 27.7505 98.7808 27.4577 99.0997 27.2235C99.4186 26.9892 99.8259 26.8721 100.321 26.8721C100.846 26.8721 101.273 26.9937 101.597 27.2325C101.921 27.4712 102.083 27.7821 102.083 28.165H101.092C101.092 27.9893 101.023 27.8451 100.881 27.728C100.738 27.6109 100.552 27.5523 100.316 27.5523C100.101 27.5523 99.924 27.5974 99.7866 27.692C99.6492 27.7866 99.5805 27.9082 99.5805 28.0614C99.5805 28.201 99.6443 28.3092 99.7719 28.3857C99.8995 28.4623 100.159 28.5389 100.547 28.62C100.935 28.6966 101.239 28.7912 101.46 28.8993C101.68 29.0074 101.847 29.1381 101.95 29.2912C102.053 29.4444 102.112 29.6291 102.112 29.8454C102.112 30.2103 101.95 30.5031 101.622 30.7283C101.293 30.9536 100.861 31.0662 100.331 31.0662C99.9681 31.0662 99.6492 31.0076 99.3647 30.886C99.0801 30.7644 98.8642 30.6022 98.7072 30.3905C98.5502 30.1832 98.4717 29.9535 98.4717 29.7147H99.4333C99.4481 29.931 99.5364 30.0931 99.6983 30.2103C99.8602 30.3274 100.076 30.386 100.346 30.386C100.616 30.386 100.802 30.3409 100.94 30.2508C101.077 30.1607 101.146 30.0391 101.146 29.8949H101.141Z" fill="white"/>
<path d="M105.32 29.8949C105.32 29.7327 105.247 29.6111 105.105 29.5255C104.962 29.4399 104.717 29.3678 104.383 29.3003C104.045 29.2372 103.765 29.1516 103.539 29.0525C103.044 28.8317 102.799 28.5164 102.799 28.0974C102.799 27.7505 102.96 27.4577 103.279 27.2235C103.598 26.9892 104.006 26.8721 104.501 26.8721C105.026 26.8721 105.453 26.9937 105.777 27.2325C106.101 27.4712 106.262 27.7821 106.262 28.165H105.271C105.271 27.9893 105.203 27.8451 105.06 27.728C104.918 27.6109 104.732 27.5523 104.496 27.5523C104.28 27.5523 104.104 27.5974 103.966 27.692C103.829 27.7866 103.76 27.9082 103.76 28.0614C103.76 28.201 103.824 28.3092 103.952 28.3857C104.079 28.4623 104.339 28.5389 104.727 28.62C105.114 28.6966 105.419 28.7912 105.639 28.8993C105.86 29.0074 106.027 29.1381 106.13 29.2912C106.233 29.4444 106.292 29.6291 106.292 29.8454C106.292 30.2103 106.13 30.5031 105.801 30.7283C105.473 30.9536 105.041 31.0662 104.511 31.0662C104.148 31.0662 103.829 31.0076 103.544 30.886C103.26 30.7644 103.044 30.6022 102.887 30.3905C102.73 30.1832 102.651 29.9535 102.651 29.7147H103.613C103.628 29.931 103.716 30.0931 103.878 30.2103C104.04 30.3274 104.256 30.386 104.526 30.386C104.795 30.386 104.982 30.3409 105.119 30.2508C105.257 30.1607 105.325 30.0391 105.325 29.8949H105.32Z" fill="white"/>
<path d="M113.417 25.5524V29.1924C113.417 29.769 113.216 30.2285 112.813 30.5664C112.411 30.9043 111.871 31.071 111.204 31.071C110.537 31.071 109.987 30.9043 109.59 30.5709C109.192 30.2375 108.991 29.778 108.991 29.1879V25.5524H110.017V29.1924C110.017 29.5573 110.12 29.8366 110.316 30.0258C110.512 30.215 110.811 30.3141 111.204 30.3141C111.999 30.3141 112.391 29.9312 112.391 29.1608V25.5479H113.417V25.5524Z" fill="white"/>
<path d="M115.213 26.949L115.242 27.4176C115.566 27.0572 115.998 26.877 116.523 26.877C117.44 26.877 117.906 27.359 117.926 28.3231V30.9945H116.935V28.3726C116.935 28.1158 116.876 27.9266 116.753 27.8005C116.63 27.6788 116.434 27.6158 116.159 27.6158C115.762 27.6158 115.463 27.7825 115.266 28.1113V30.99H114.275V26.9445H115.208L115.213 26.949Z" fill="white"/>
<path d="M118.809 25.8996C118.809 25.76 118.858 25.6428 118.951 25.5527C119.049 25.4626 119.186 25.4131 119.363 25.4131C119.54 25.4131 119.682 25.4581 119.78 25.5527C119.878 25.6473 119.927 25.76 119.927 25.8996C119.927 26.0393 119.878 26.1519 119.78 26.242C119.682 26.3321 119.545 26.3772 119.363 26.3772C119.181 26.3772 119.044 26.3321 118.951 26.242C118.858 26.1519 118.809 26.0348 118.809 25.8996ZM119.859 30.9948H118.867V26.9493H119.859V30.9948Z" fill="white"/>
<path d="M122.052 25.9668V26.9489H122.827V27.6201H122.052V29.8771C122.052 30.0303 122.087 30.1429 122.15 30.2105C122.214 30.2781 122.337 30.3141 122.508 30.3141C122.621 30.3141 122.739 30.3006 122.857 30.2781V30.9808C122.631 31.0394 122.415 31.0664 122.204 31.0664C121.444 31.0664 121.066 30.6835 121.066 29.9132V27.6201H120.34V26.9489H121.066V25.9668H122.057H122.052Z" fill="white"/>
<path d="M5.03357 6.42887L5.31324 6.52798C9.19912 7.66323 11.51 6.58654 12.8495 3.0186C12.8495 2.96004 12.8838 2.89697 12.9084 2.8339C13.5757 0.991361 15.7443 -0.00423893 17.751 0.608438C19.7577 1.22112 20.8421 3.21232 20.1748 5.05485C19.5075 6.89739 17.3389 7.89299 15.3322 7.28031H15.3223C15.2536 7.26229 15.185 7.23526 15.1212 7.20823C11.196 6.04144 8.88511 7.08209 7.52603 10.605C7.52603 10.6951 7.47697 10.7852 7.44753 10.8753C7.41809 10.9654 7.39847 10.9879 7.36903 11.0465C6.09336 14.6505 7.22674 16.7678 11.0734 18.0157L11.3678 18.0878C11.4659 18.1193 11.5591 18.1553 11.6474 18.1914C15.5382 19.3221 17.8442 18.2454 19.1886 14.6775C19.1886 14.6189 19.2229 14.5558 19.2426 14.4973C19.9 12.6502 22.0589 11.6456 24.0656 12.2448C26.0723 12.844 27.1713 14.8307 26.5188 16.6732C25.8613 18.5202 23.7025 19.5248 21.6958 18.9257C21.6811 18.9257 21.6712 18.9167 21.6565 18.9167C21.5878 18.9167 21.529 18.8716 21.4603 18.8491C17.5351 17.6823 15.2193 18.7184 13.8602 22.2458C13.8357 22.3314 13.8112 22.4215 13.7817 22.5116C13.1046 24.3542 10.9311 25.3408 8.92436 24.7191C6.91764 24.0974 5.84313 22.1017 6.52022 20.2592C6.55456 20.1691 6.58891 20.0835 6.63306 19.9979C7.86458 16.4389 6.68703 14.3216 2.79133 13.0962L2.59998 13.0467C0.598164 12.4205 -0.476343 10.4248 0.200744 8.58675C0.87783 6.74872 3.05137 5.76213 5.04829 6.38382L5.02866 6.42436H5.03357V6.42887Z" fill="white"/>
<path d="M21.0827 20.8226C21.1514 20.8226 21.2151 20.8677 21.2838 20.8902C25.209 22.057 27.5199 21.0208 28.8741 17.498C28.8741 17.4079 28.928 17.3178 28.9575 17.2277C28.9869 17.1376 29.0065 17.1105 29.036 17.0565C30.3116 13.4525 29.1783 11.3306 25.3316 10.0873C25.2335 10.0647 25.1354 10.0422 25.0372 10.0107C24.944 9.98365 24.8508 9.95212 24.7576 9.91157C20.8668 8.78082 18.5559 9.85751 17.2164 13.4209C17.2164 13.484 17.1821 13.5471 17.1624 13.6057C16.4952 15.4482 14.3265 16.4438 12.3198 15.8311C10.3131 15.2184 9.22875 13.2272 9.89603 11.3847C10.5633 9.54216 12.7319 8.54656 14.7387 9.15924H14.7485L14.9398 9.23132C18.865 10.3981 21.1857 9.35746 22.5448 5.83457C22.5644 5.74447 22.5938 5.65437 22.6233 5.56877C23.2955 3.72624 25.4641 2.73514 27.4708 3.35232C29.4776 3.96951 30.557 5.96071 29.8848 7.79874C29.8504 7.88884 29.8112 7.97443 29.7719 8.06003C28.5355 11.619 29.7131 13.7363 33.6088 14.9617L33.805 15.0112C35.8068 15.6329 36.8813 17.6286 36.2043 19.4621C35.5272 21.3002 33.3536 22.2867 31.3518 21.6651L31.0721 21.5614C27.1814 20.4307 24.8753 21.5074 23.5359 25.0753C23.5359 25.1339 23.5015 25.197 23.477 25.2555C22.8097 27.0981 20.6411 28.0892 18.6344 27.4765C16.6276 26.8638 15.5482 24.8726 16.2155 23.0301C16.8828 21.1875 19.0514 20.1964 21.0581 20.8091C21.0679 20.8091 21.0729 20.8091 21.0827 20.8181V20.8226Z" fill="white"/>
<path d="M53.838 6.41527C55.5013 6.40175 57.1008 6.9874 58.2979 8.04607C58.8671 8.55063 59.3283 9.15429 59.6472 9.82103C59.9759 10.5058 60.1428 11.2491 60.1379 11.9969V20.4843H56.8996V11.9969C56.8996 11.632 56.8162 11.2716 56.6592 10.9383C56.5071 10.6094 56.2814 10.3121 56.0017 10.0643C55.7172 9.81653 55.3835 9.61831 55.0205 9.48316C53.8675 9.05068 52.5476 9.28043 51.6448 10.0643C51.375 10.3166 51.1591 10.6139 51.0119 10.9383C50.85 11.2716 50.7715 11.632 50.7715 11.9969V20.4843H47.5431V11.9969C47.5382 11.2491 47.705 10.5058 48.0337 9.82103C48.3526 9.15429 48.8089 8.55063 49.383 8.04607C50.5801 6.9874 52.1796 6.40175 53.838 6.41527Z" fill="white"/>
<path d="M73.0073 13.4472C73.8021 14.213 74.2633 15.2266 74.2928 16.2853C74.2633 17.344 73.8021 18.3576 73.0073 19.1234V19.146C72.5657 19.5514 72.0505 19.8803 71.4863 20.1145C70.8877 20.3623 70.2401 20.4885 69.5826 20.4839H62.4045V17.781H69.6562C70.0585 17.7314 70.4265 17.5557 70.7013 17.2809C70.976 17.0196 71.1232 16.6682 71.1183 16.3078C71.1183 15.9564 70.9809 15.6141 70.716 15.3573C70.4461 15.096 70.0929 14.9248 69.7053 14.8572H66.0304C65.3729 14.8662 64.7252 14.7401 64.1267 14.4878C63.5624 14.2491 63.0473 13.9202 62.6057 13.5147C62.2181 13.1408 61.9041 12.7084 61.6833 12.2308C61.2319 11.2397 61.2319 10.118 61.6833 9.1269C61.909 8.65388 62.2181 8.21689 62.6057 7.84298C63.0473 7.43753 63.5624 7.10867 64.1267 6.86991C64.7252 6.62213 65.3729 6.5005 66.0304 6.505H73.233V9.20799H65.9813C65.579 9.25754 65.211 9.43324 64.9362 9.70804C64.6615 9.96933 64.5143 10.3207 64.5192 10.6811V10.7036C64.5094 11.0595 64.6566 11.4064 64.9215 11.6632C65.1816 11.9245 65.525 12.1047 65.9028 12.1768H69.6071C70.2597 12.1723 70.9122 12.2894 71.5108 12.5327C72.08 12.7624 72.5952 13.0913 73.0318 13.4922C73.0318 13.4922 73.022 13.4472 73.0073 13.4472Z" fill="white"/>
<path d="M99.3889 17.6467C100.375 17.6648 101.347 17.3855 102.146 16.8539C102.917 16.3583 103.505 15.6646 103.844 14.8582L106.842 15.7952C106.577 16.4754 106.194 17.1106 105.708 17.6828C105.223 18.2549 104.644 18.755 103.996 19.1694C103.329 19.5884 102.603 19.9127 101.832 20.138C99.0013 20.9714 95.8955 20.3182 93.7465 18.4306C93.0204 17.7909 92.4463 17.0251 92.044 16.1781C91.2197 14.4302 91.2197 12.4525 92.044 10.7046C92.4414 9.85763 93.0204 9.09179 93.7465 8.45208C94.4825 7.81237 95.3411 7.30331 96.2782 6.94742C97.2546 6.57351 98.2997 6.3843 99.3595 6.3888C100.189 6.3843 101.018 6.49692 101.813 6.72217C102.563 6.93841 103.275 7.25826 103.927 7.65921C104.57 8.05564 105.139 8.54218 105.63 9.09179C106.116 9.6414 106.508 10.2586 106.788 10.9208L103.814 11.8804C103.481 11.092 102.882 10.4208 102.112 9.96125C101.312 9.47021 100.37 9.20892 99.4085 9.22243C98.7756 9.21793 98.1525 9.33055 97.5686 9.56031C97.0093 9.77204 96.5039 10.0784 96.0673 10.4613C95.6453 10.8487 95.3117 11.3082 95.086 11.8128C94.6002 12.8534 94.6002 14.0292 95.086 15.0699C95.3166 15.5654 95.6502 16.0204 96.0673 16.3989C96.5039 16.7818 97.0093 17.0881 97.5686 17.2999C98.1427 17.5296 98.7609 17.6467 99.3889 17.6467Z" fill="white"/>
<path d="M116.036 6.41534C117.096 6.40633 118.146 6.60004 119.122 6.97396C120.064 7.32534 120.928 7.83441 121.664 8.47862C122.385 9.12283 122.959 9.88868 123.366 10.7311C124.205 12.4745 124.205 14.4612 123.366 16.2047C122.959 17.0471 122.38 17.8129 121.664 18.4571C120.938 19.1059 120.084 19.6194 119.147 19.9663C116.173 21.0835 112.764 20.4934 110.443 18.4571C109.722 17.8174 109.143 17.0516 108.745 16.2047C107.921 14.4567 107.921 12.479 108.745 10.7311C109.143 9.88417 109.717 9.11833 110.443 8.47862C111.179 7.83891 112.037 7.32985 112.974 6.97396C113.946 6.60004 114.986 6.41083 116.036 6.41534ZM116.061 17.6462C116.694 17.6462 117.317 17.5381 117.901 17.3129C118.45 17.1011 118.946 16.7948 119.372 16.4119C119.804 16.0335 120.148 15.583 120.393 15.0829C120.898 14.0468 120.898 12.862 120.393 11.8258C120.153 11.3168 119.804 10.8618 119.372 10.4743C118.946 10.0914 118.45 9.78506 117.901 9.57333C116.723 9.12283 115.398 9.12283 114.221 9.57333C113.666 9.78506 113.156 10.0914 112.724 10.4743C112.293 10.8572 111.949 11.3168 111.714 11.8258C111.228 12.8665 111.228 14.0423 111.714 15.0829C111.949 15.583 112.293 16.0335 112.724 16.4119C113.156 16.7948 113.666 17.1011 114.221 17.3129C114.805 17.5381 115.428 17.6508 116.061 17.6462Z" fill="white"/>
<path d="M42.3369 9.45202V6.46973H45.6586V9.45202H42.3369ZM45.6586 10.1863V20.4802H42.3369V10.1953L45.6586 10.1863Z" fill="white"/>
<path d="M76.0684 9.45202V6.46973H79.39V9.45202H76.0684ZM79.39 10.1863V20.4577H76.0684V10.1953L79.39 10.1863Z" fill="white"/>
<path d="M86.2695 9.45202V6.46973H89.5912V9.45202H86.2695ZM89.5912 10.1863V20.4757H86.2695V10.1953L89.5912 10.1863Z" fill="white"/>
<path d="M84.557 20.4797H81.2354V6.45117H84.557V20.4797Z" fill="white"/>
</svg>
