<svg width="157" height="93" viewBox="0 0 157 93" fill="none" xmlns="http://www.w3.org/2000/svg">
<path d="M75.9335 20.3065L75.9448 72.139C75.9448 72.5466 75.9561 72.9542 75.9787 73.359C75.979 73.5482 76.1213 73.7068 76.3088 73.727C76.4861 73.7552 76.6654 73.7694 76.8449 73.7695H87.407L87.4969 73.7691C88.0485 73.767 88.3327 73.7659 88.4791 73.6233C88.6347 73.4717 88.6346 73.1603 88.6345 72.5179L88.6345 71.6408C88.6175 65.8455 88.6175 60.0501 88.6345 54.2548C88.6352 54.0714 88.6232 53.8863 88.6112 53.7008C88.5769 53.1706 88.5425 52.6372 88.8038 52.1318C89.3212 51.9384 89.8542 51.9651 90.3854 51.9916C90.5698 52.0009 90.7539 52.0101 90.937 52.0101H98.9256C99.6197 52.0072 99.7185 51.9251 99.8483 51.2939C99.9042 51.0286 99.9335 50.7583 99.9358 50.4872V41.93C99.9272 41.615 99.8846 41.3018 99.8088 40.9959C99.6875 40.4694 99.5887 40.3901 99.0921 40.3647H90.2824C90.162 40.3647 90.0416 40.3669 89.9212 40.3691C89.6804 40.3735 89.4396 40.3779 89.1988 40.3647C88.7784 40.3647 88.6683 40.2316 88.6345 39.7985C88.6316 39.7533 88.6316 39.7079 88.6345 39.6627V31.2414C88.6373 30.7036 88.7643 30.5847 89.2581 30.5592H99.8286C100.19 30.5592 100.551 30.5535 100.909 30.5337C101.148 30.5337 101.342 30.3403 101.344 30.1006C101.364 29.7411 101.364 29.3788 101.364 29.0165V20.1876C101.364 20.074 101.364 19.9688 101.365 19.8712C101.368 19.2557 101.37 18.9466 101.217 18.7931C101.063 18.6393 100.754 18.6409 100.135 18.6439C100.041 18.6444 99.94 18.6449 99.8314 18.6449H77.6266C77.4578 18.6449 77.3056 18.6434 77.1686 18.642C76.5513 18.6357 76.2397 18.6326 76.0837 18.7868C75.9248 18.9438 75.9271 19.264 75.9317 19.9102C75.9326 20.0306 75.9335 20.1624 75.9335 20.3065Z" fill="white"/>
<path d="M117.792 55.4437V40.2288C117.829 39.2333 117.797 38.2363 117.696 37.2453C117.665 36.8394 117.677 36.4313 117.733 36.0281C117.866 34.358 117.897 32.6822 117.863 31.0093C117.863 30.4743 117.739 30.3611 117.217 30.3582H111.124C110.891 30.3582 110.686 30.3612 110.506 30.3638C109.854 30.3732 109.532 30.3778 109.375 30.2191C109.222 30.0645 109.225 29.7547 109.233 29.1432C109.235 28.9582 109.238 28.7456 109.236 28.5013C109.227 26.6595 109.23 24.8177 109.233 22.9758L109.233 22.9565C109.235 22.042 109.236 21.1276 109.236 20.2131C109.236 19.8508 109.236 19.4884 109.259 19.1289C109.254 19.0154 109.294 18.9044 109.371 18.8208C109.448 18.7373 109.555 18.6882 109.668 18.6845C109.981 18.6619 110.297 18.6562 110.613 18.6562H137.703C139.094 18.6562 139.114 18.6562 139.114 20.1027V28.9316C139.114 29.2486 139.114 29.5656 139.088 29.8827C139.093 29.9975 139.051 30.1093 138.973 30.1929C138.894 30.2765 138.785 30.3249 138.671 30.3271C138.355 30.3469 138.039 30.3554 137.725 30.3582H132.158C131.797 30.3582 131.436 30.3582 131.077 30.378C130.841 30.365 130.638 30.5436 130.62 30.78C130.602 30.9142 130.59 31.0493 130.586 31.1848C130.57 31.9503 130.545 32.7161 130.52 33.4819C130.463 35.205 130.407 36.9288 130.448 38.6493C130.602 45.2595 130.574 51.8697 130.546 58.4808L130.546 58.4859C130.533 61.6968 130.52 64.908 130.527 68.1194C130.527 69.0922 130.5 70.069 130.472 71.0462C130.454 71.698 130.436 72.3513 130.425 73.0024C130.411 73.7497 130.332 73.8289 129.537 73.8317H123.046C121.556 73.8317 120.067 73.8317 118.577 73.8063C117.961 73.8063 117.868 73.7015 117.832 73.1071C117.803 72.6117 117.803 72.1107 117.803 71.6125C117.796 66.2229 117.792 60.8333 117.792 55.4437Z" fill="white"/>
<path d="M22.8384 20.4226L22.8469 73.1212C22.8723 73.7213 22.9485 73.7865 23.5975 73.8119H43.6351C43.7406 73.8119 43.846 73.8138 43.9514 73.8157C44.1617 73.8195 44.3717 73.8232 44.5804 73.8119C45.1307 73.7893 45.2266 73.7015 45.252 73.1892V62.594C45.2506 61.7394 45.2875 61.3426 45.1073 61.1597C44.9246 60.9743 44.5188 61.0088 43.6238 61.0088H36.3125C35.466 61.006 35.3616 60.9012 35.3418 60.0945C35.308 59.0075 35.308 57.9205 35.308 56.8335V20.5584C35.308 20.4226 35.3098 20.2867 35.3117 20.1508C35.3155 19.8791 35.3193 19.6073 35.308 19.3356C35.2826 18.7553 35.1866 18.6704 34.5602 18.6449H24.6754C23.6376 18.6492 23.1795 18.5884 22.9803 18.7872C22.7852 18.9818 22.8384 19.4253 22.8384 20.4226Z" fill="white"/>
<path fill-rule="evenodd" clip-rule="evenodd" d="M2.22512 92.8878C2.01407 92.8878 1.82754 92.8902 1.66271 92.8924C1.02579 92.9005 0.712879 92.9045 0.562248 92.7502C0.416833 92.6012 0.422596 92.3047 0.433924 91.7219C0.437545 91.5355 0.441736 91.3199 0.441736 91.0706C0.430448 61.6844 0.424805 32.2944 0.424805 2.90068V1.13433C0.424805 0.0586776 0.450201 0.0247096 1.5761 0.00206417H154.066C154.208 0.00206417 154.34 0.00147137 154.462 0.000921112C155.287 -0.0027936 155.68 -0.0045677 155.865 0.191083C156.035 0.369934 156.029 0.71376 156.019 1.37189C156.017 1.5509 156.014 1.75509 156.014 1.98354V90.9686C156.014 91.2136 156.017 91.4277 156.02 91.6147C156.031 92.2517 156.036 92.5754 155.877 92.7371C155.714 92.9036 155.376 92.8992 154.691 92.8901C154.501 92.8876 154.285 92.8847 154.038 92.885L2.22512 92.8878ZM144.393 83.1022C144.842 83.1022 145.293 83.088 145.745 83.0597C145.935 83.0568 146.089 82.9048 146.095 82.7144C146.123 82.2643 146.143 81.8114 146.143 81.3585V10.5775C146.115 10.0425 146.007 9.92358 145.514 9.89527C145.183 9.87906 144.849 9.87991 144.516 9.88075L144.295 9.88112H68.0494C67.8172 9.88112 67.6125 9.87826 67.4321 9.87573C66.7603 9.86632 66.4248 9.86163 66.2595 10.0271C66.0945 10.1922 66.0991 10.5268 66.1084 11.1954C66.111 11.3828 66.1139 11.5965 66.1136 11.8399V59.2509C66.1136 59.7038 66.1052 60.1567 66.0882 60.6097C66.092 60.7239 66.0495 60.8349 65.9702 60.9171C65.8909 60.9993 65.7818 61.0456 65.6678 61.0456C65.3669 61.0668 65.066 61.0684 64.7651 61.0699L64.5842 61.0711H55.5121C55.2894 61.0711 55.0934 61.0738 54.9209 61.0763C54.2868 61.0854 53.9708 61.0899 53.8154 60.9341C53.661 60.7794 53.6652 60.4666 53.6734 59.843C53.6755 59.6816 53.6779 59.4991 53.6779 59.2934V11.6107C53.6779 11.4513 53.6792 11.3066 53.6804 11.1751C53.6862 10.5388 53.6891 10.2125 53.5279 10.047C53.359 9.87354 53.0099 9.87555 52.2953 9.87968C52.176 9.88037 52.0464 9.88112 51.9058 9.88112H14.3758C13.7787 9.88112 13.1816 9.86431 12.5857 9.84754C12.3705 9.84148 12.1554 9.83543 11.9406 9.83017C11.5089 9.83017 11.3762 9.91792 11.3762 10.3737C11.3508 11.3248 11.3367 12.273 11.3367 13.2241V79.7903C11.3367 80.2885 11.3367 80.7867 11.3537 81.2849C11.3615 81.5502 11.3628 81.7771 11.3639 81.9711C11.367 82.5198 11.3686 82.8053 11.5121 82.9525C11.6677 83.1121 11.9903 83.109 12.6627 83.1025C12.8137 83.101 12.9824 83.0994 13.1709 83.0994L144.393 83.1022Z" fill="white"/>
</svg>
