<svg width="156" height="105" viewBox="0 0 156 105" fill="none" xmlns="http://www.w3.org/2000/svg">
<path d="M75.5087 23.5027L75.52 81.3798C75.52 81.835 75.5313 82.2901 75.5539 82.7421C75.5542 82.9534 75.6965 83.1305 75.884 83.153C76.0613 83.1845 76.2406 83.2004 76.4201 83.2004H86.9822L87.0721 83.2C87.6237 83.1977 87.9079 83.1964 88.0543 83.0372C88.2099 82.868 88.2098 82.5203 88.2097 81.8029L88.2097 80.8235C88.1927 74.3524 88.1927 67.8812 88.2097 61.41C88.2104 61.2052 88.1984 60.9986 88.1864 60.7915C88.1521 60.1994 88.1177 59.6037 88.379 59.0394C88.8964 58.8235 89.4294 58.8533 89.9606 58.8829C90.145 58.8932 90.3291 58.9035 90.5122 58.9035H98.5008C99.1949 58.9003 99.2937 58.8087 99.4235 58.1038C99.4794 57.8076 99.5087 57.5058 99.511 57.203V47.648C99.5024 47.2961 99.4598 46.9464 99.384 46.6049C99.2627 46.017 99.1639 45.9285 98.6673 45.9H89.8576C89.7372 45.9 89.6168 45.9025 89.4964 45.905C89.2556 45.9099 89.0148 45.9148 88.774 45.9C88.3536 45.9 88.2435 45.7515 88.2097 45.2679C88.2068 45.2174 88.2068 45.1667 88.2097 45.1162V35.7128C88.2125 35.1123 88.3395 34.9795 88.8333 34.9511H99.4037C99.7649 34.9511 100.126 34.9448 100.485 34.9226C100.723 34.9226 100.918 34.7066 100.919 34.439C100.939 34.0376 100.939 33.633 100.939 33.2285V23.37C100.939 23.2432 100.939 23.1256 100.94 23.0167C100.943 22.3294 100.945 21.9842 100.792 21.8129C100.638 21.6411 100.329 21.6428 99.7101 21.6463C99.6162 21.6468 99.5152 21.6473 99.4066 21.6473H77.2018C77.033 21.6473 76.8808 21.6456 76.7438 21.6441C76.1265 21.6371 75.8149 21.6336 75.6589 21.8058C75.5 21.9811 75.5023 22.3386 75.5069 23.0602C75.5078 23.1947 75.5087 23.3418 75.5087 23.5027Z" fill="white"/>
<path d="M117.367 62.7375V45.7483C117.404 44.6367 117.372 43.5235 117.271 42.4169C117.24 41.9636 117.252 41.508 117.308 41.0577C117.441 39.1929 117.472 37.3217 117.438 35.4537C117.438 34.8563 117.314 34.7298 116.792 34.7267H110.699C110.466 34.7267 110.261 34.73 110.082 34.7329C109.429 34.7434 109.107 34.7485 108.95 34.5713C108.797 34.3987 108.801 34.0528 108.808 33.3699C108.81 33.1634 108.813 32.926 108.812 32.6532C108.802 30.5966 108.805 28.54 108.809 26.4833L108.809 26.4618C108.81 25.4407 108.812 24.4195 108.812 23.3984C108.812 22.9938 108.812 22.5893 108.834 22.1878C108.829 22.061 108.869 21.9371 108.946 21.8438C109.023 21.7505 109.13 21.6957 109.243 21.6916C109.557 21.6663 109.873 21.66 110.189 21.66H137.278C138.669 21.66 138.689 21.66 138.689 23.2752V33.1336C138.689 33.4876 138.689 33.8417 138.664 34.1957C138.668 34.3239 138.626 34.4487 138.548 34.5421C138.469 34.6355 138.36 34.6895 138.246 34.6919C137.93 34.714 137.614 34.7235 137.301 34.7267H131.733C131.372 34.7267 131.011 34.7267 130.652 34.7488C130.416 34.7343 130.213 34.9337 130.195 35.1976C130.177 35.3475 130.166 35.4984 130.161 35.6496C130.145 36.5044 130.12 37.3595 130.095 38.2146C130.038 40.1387 129.982 42.0635 130.023 43.9846C130.177 51.3657 130.149 58.7468 130.122 66.1288L130.122 66.1345C130.108 69.7199 130.095 73.3056 130.102 76.8915C130.102 77.9777 130.075 79.0684 130.047 80.1596C130.029 80.8874 130.011 81.6169 130.001 82.3439C129.986 83.1783 129.907 83.2668 129.112 83.27H122.622C121.132 83.27 119.642 83.27 118.152 83.2415C117.537 83.2415 117.444 83.1246 117.407 82.4608C117.379 81.9077 117.379 81.3482 117.379 80.7919C117.371 74.7738 117.367 68.7557 117.367 62.7375Z" fill="white"/>
<path d="M22.4136 23.6323L22.4221 82.4766C22.4475 83.1467 22.5237 83.2194 23.1727 83.2479H43.2103C43.3158 83.2479 43.4212 83.25 43.5266 83.2521C43.7369 83.2563 43.9469 83.2605 44.1556 83.2479C44.7059 83.2226 44.8018 83.1246 44.8272 82.5525V70.7217C44.8258 69.7674 44.8627 69.3244 44.6825 69.1202C44.4998 68.9132 44.094 68.9516 43.199 68.9516H35.8877C35.0412 68.9485 34.9368 68.8315 34.917 67.9307C34.8832 66.717 34.8832 65.5032 34.8832 64.2895V23.784C34.8832 23.6323 34.885 23.4806 34.8869 23.3289C34.8907 23.0254 34.8944 22.722 34.8832 22.4186C34.8578 21.7706 34.7618 21.6758 34.1354 21.6473H24.2506C23.2128 21.6521 22.7547 21.5843 22.5555 21.8062C22.3604 22.0236 22.4136 22.5188 22.4136 23.6323Z" fill="white"/>
<path fill-rule="evenodd" clip-rule="evenodd" d="M1.80031 104.548C1.58927 104.548 1.40273 104.551 1.2379 104.553C0.60099 104.563 0.288074 104.567 0.137444 104.395C-0.00797162 104.228 -0.00220823 103.897 0.00911899 103.246C0.0127405 103.038 0.0169308 102.798 0.0169308 102.519C0.00564361 69.706 0 36.8886 0 4.06707V2.09474C0 0.893646 0.0253963 0.855716 1.1513 0.83043H153.642C153.783 0.83043 153.915 0.829768 154.037 0.829154C154.862 0.825006 155.256 0.823025 155.441 1.04149C155.61 1.2412 155.605 1.62512 155.595 2.36C155.592 2.55988 155.589 2.7879 155.589 3.04298V102.405C155.589 102.679 155.592 102.918 155.595 103.127C155.606 103.838 155.611 104.199 155.453 104.38C155.289 104.566 154.951 104.561 154.266 104.551C154.076 104.548 153.86 104.545 153.613 104.545L1.80031 104.548ZM143.969 93.6216C144.417 93.6216 144.869 93.6057 145.32 93.5741C145.51 93.5709 145.664 93.4011 145.67 93.1885C145.698 92.686 145.718 92.1802 145.718 91.6745V12.6391C145.69 12.0417 145.583 11.909 145.089 11.8774C144.759 11.8593 144.425 11.8602 144.092 11.8611L143.87 11.8616H67.6246C67.3924 11.8616 67.1877 11.8584 67.0073 11.8555C66.3355 11.845 66 11.8398 65.8347 12.0245C65.6697 12.2089 65.6743 12.5826 65.6836 13.3292C65.6862 13.5384 65.6891 13.7769 65.6888 14.0488V66.9888C65.6888 67.4945 65.6803 68.0002 65.6634 68.506C65.6672 68.6336 65.6246 68.7575 65.5454 68.8492C65.4661 68.941 65.357 68.9928 65.243 68.9927C64.9421 69.0164 64.6412 69.0182 64.3403 69.0199L64.1594 69.0212H55.0873C54.8646 69.0212 54.6686 69.0243 54.4961 69.027C53.862 69.0371 53.546 69.0422 53.3906 68.8683C53.2362 68.6955 53.2404 68.3462 53.2486 67.6499C53.2507 67.4697 53.2531 67.2659 53.2531 67.0362V13.7928C53.2531 13.6149 53.2544 13.4532 53.2556 13.3064C53.2614 12.596 53.2643 12.2316 53.1031 12.0467C52.9342 11.8531 52.5851 11.8553 51.8705 11.86C51.7512 11.8607 51.6216 11.8616 51.481 11.8616H13.951C13.3539 11.8616 12.7568 11.8428 12.1609 11.8241C11.9457 11.8173 11.7306 11.8105 11.5158 11.8047C11.0841 11.8047 10.9514 11.9027 10.9514 12.4115C10.926 13.4736 10.9119 14.5324 10.9119 15.5944V89.9234C10.9119 90.4797 10.9119 91.036 10.9289 91.5923C10.9367 91.8886 10.938 92.1419 10.9391 92.3585C10.9422 92.9713 10.9438 93.2901 11.0873 93.4544C11.2429 93.6326 11.5655 93.6291 12.2379 93.6219C12.3889 93.6202 12.5576 93.6184 12.7461 93.6184L143.969 93.6216Z" fill="white"/>
</svg>
