<svg width="26" height="24" viewBox="0 0 26 24" fill="none" xmlns="http://www.w3.org/2000/svg">
<path fill-rule="evenodd" clip-rule="evenodd" d="M20.1605 15.2598L17.557 14.9698C16.9318 14.8998 16.3168 15.1098 15.876 15.5398L13.99 17.3798C11.0893 15.9398 8.71127 13.6298 7.23527 10.7898L9.13152 8.93977C9.57227 8.50977 9.78752 7.90977 9.71577 7.29977L9.41852 4.77977C9.29552 3.76977 8.42427 3.00977 7.37877 3.00977H5.60552C4.44727 3.00977 3.48377 3.94977 3.55552 5.07977C4.09877 13.6198 11.0995 20.4398 19.8428 20.9698C21.001 21.0398 21.9645 20.0998 21.9645 18.9698V17.2398C21.9748 16.2298 21.1958 15.3798 20.1605 15.2598Z" fill="white"/>
</svg>
