<svg width="24" height="28" viewBox="0 0 24 28" fill="none" xmlns="http://www.w3.org/2000/svg">
<path fill-rule="evenodd" clip-rule="evenodd" d="M19.23 17.433L16.69 17.1091C16.08 17.031 15.48 17.2655 15.05 17.7456L13.21 19.8002C10.38 18.1923 8.06004 15.6129 6.62004 12.4417L8.47004 10.3759C8.90004 9.89579 9.11004 9.22582 9.04004 8.54468L8.75004 5.73081C8.63004 4.60302 7.78004 3.75439 6.76004 3.75439H5.03004C3.90004 3.75439 2.96004 4.80402 3.03004 6.06579C3.56004 15.6017 10.39 23.217 18.92 23.8088C20.05 23.887 20.99 22.8374 20.99 21.5756V19.6439C21 18.5161 20.24 17.567 19.23 17.433Z" fill="white"/>
</svg>
