<svg width="18" height="18" viewBox="0 0 18 18" fill="none" xmlns="http://www.w3.org/2000/svg">
<path d="M18 2.42324C17.3386 2.75956 16.6265 2.987 15.8796 3.08862C16.6424 2.566 17.2277 1.7373 17.5034 0.750131C16.7892 1.23404 16 1.58608 15.1569 1.77481C14.4849 0.953372 13.5246 0.44043 12.4617 0.44043C10.4237 0.44043 8.77021 2.33372 8.77021 4.66858C8.77021 5.00005 8.8019 5.32185 8.86529 5.63155C5.79609 5.45493 3.07554 3.77335 1.25304 1.21226C0.935024 1.83892 0.753302 2.566 0.753302 3.34025C0.753302 4.80649 1.40518 6.10094 2.3962 6.85947C1.79186 6.8389 1.22134 6.64655 0.722663 6.33201V6.38403C0.722663 8.43338 1.99577 10.1428 3.68621 10.5299C3.37665 10.6291 3.05018 10.6787 2.71315 10.6787C2.47544 10.6787 2.243 10.6533 2.01796 10.6037C2.48811 12.2829 3.85103 13.5059 5.46751 13.5386C4.20391 14.6734 2.61067 15.3496 0.881141 15.3496C0.583201 15.3496 0.288431 15.3303 0 15.2916C1.63444 16.4892 3.57633 17.1897 5.66086 17.1897C12.4543 17.1897 16.168 10.7477 16.168 5.15974C16.168 4.97586 16.1648 4.79197 16.1585 4.61172C16.8801 4.0153 17.5066 3.27129 18 2.42324" fill="white"/>
</svg>
