<svg width="19" height="15" viewBox="0 0 19 15" fill="none" xmlns="http://www.w3.org/2000/svg">
<path d="M18.6756 1.77573C17.9977 2.07692 17.2678 2.28061 16.5021 2.37161C17.284 1.90358 17.884 1.16143 18.1666 0.277356C17.4345 0.710726 16.6256 1.026 15.7614 1.19502C15.0727 0.459372 14.0883 0 12.9988 0C10.9098 0 9.21505 1.69556 9.21505 3.78657C9.21505 4.08342 9.24754 4.37161 9.31251 4.64897C6.16658 4.49079 3.37802 2.98483 1.50995 0.691224C1.18399 1.25244 0.99772 1.90358 0.99772 2.59697C0.99772 3.91008 1.66589 5.06934 2.68169 5.74865C2.06225 5.73023 1.47746 5.55796 0.966315 5.27627V5.32286C0.966315 7.15818 2.27125 8.68906 4.00395 9.03575C3.68665 9.12459 3.35203 9.16901 3.00657 9.16901C2.76291 9.16901 2.52466 9.14626 2.294 9.10184C2.7759 10.6056 4.17289 11.701 5.82979 11.7302C4.53459 12.7465 2.90152 13.3521 1.12876 13.3521C0.823367 13.3521 0.521228 13.3348 0.225586 13.3001C1.90089 14.3727 3.89133 15 6.02796 15C12.9913 15 16.7978 9.23077 16.7978 4.22644C16.7978 4.06176 16.7945 3.89707 16.788 3.73564C17.5277 3.20152 18.1699 2.53521 18.6756 1.77573Z" fill="white"/>
</svg>
