<svg width="1132" height="128" viewBox="0 0 1132 128" fill="none" xmlns="http://www.w3.org/2000/svg">
<path fill-rule="evenodd" clip-rule="evenodd" d="M17 0L63.168 4.17052C110.207 8.34104 202.543 16.6821 295.75 30.7977C388.957 45.2341 481.293 65.7659 574.5 69.9364C667.707 74.1069 760.043 61.5954 853.25 57.7457C946.457 53.5751 1038.79 57.7457 1085.83 59.6705L1132 61.5954V111H1085.83C1038.79 111 946.457 111 853.25 111C760.043 111 667.707 111 574.5 111C481.293 111 388.957 111 295.75 111C202.543 111 110.207 111 63.168 111H17V0Z" fill="#20DF7F" fill-opacity="0.8"/>
<path fill-rule="evenodd" clip-rule="evenodd" d="M0 61.4L37.7333 70.28C75.4667 79.16 150.933 96.92 226.4 92.48C301.867 88.04 377.333 61.4 452.8 43.64C528.267 25.88 603.733 17 679.2 17C754.667 17 830.133 25.88 905.6 41.42C981.067 56.96 1056.53 79.16 1094.27 90.26L1132 101.36V128H1094.27C1056.53 128 981.067 128 905.6 128C830.133 128 754.667 128 679.2 128C603.733 128 528.267 128 452.8 128C377.333 128 301.867 128 226.4 128C150.933 128 75.4667 128 37.7333 128H0V61.4Z" fill="#224957" fill-opacity="0.8"/>
</svg>
